<?xml version="1.0" encoding="UTF-8"?>
<svg width="1200pt" height="1200pt" version="1.1" viewBox="0 0 1200 1200" xmlns="http://www.w3.org/2000/svg">
 <path d="m678 570 268.8-270c14.398-14.398 14.398-37.199 0-50.398-14.398-14.398-37.199-14.398-50.398 0l-268.8 270-270-270c-14.398-14.398-37.199-14.398-50.398 0-14.398 14.398-14.398 37.199 0 50.398l268.8 270-268.8 270c-14.398 14.398-14.398 37.199 0 50.398 7.1992 7.1992 16.801 10.801 25.199 10.801 8.3984 0 18-3.6016 25.199-10.801l270-270 270 270c7.1992 7.1992 16.801 10.801 25.199 10.801s18-3.6016 25.199-10.801c14.398-14.398 14.398-37.199 0-50.398z" fill="#010101"/>
</svg>
