<?xml version="1.0" encoding="UTF-8"?>
<svg width="1200pt" height="1200pt" version="1.1" viewBox="0 0 1200 1200" xmlns="http://www.w3.org/2000/svg">
 <path d="m600 228c-205.12 0-372 166.88-372 372s166.88 372 372 372 372-166.88 372-372-166.88-372-372-372zm-348 372c0-191.89 156.11-348 348-348s348 156.11 348 348c0 88.68-33.383 169.67-88.188 231.19-44.102-65.641-110.11-110.46-185.45-127.46 62.207-28.379 105.64-91.008 105.64-163.73 0-99.254-80.746-180-180-180s-180 80.746-180 180c0 74.398 45.383 138.41 109.91 165.79-74.746 19.332-140.62 66.613-182.64 133.07-58.977-62.375-95.266-146.43-95.266-238.86zm348 96c-86.016 0-156-69.984-156-156s69.984-156 156-156 156 69.984 156 156-69.984 156-156 156zm-235.26 160.15c50.941-84.059 142.88-136.15 241.26-136.15 96.758 0 184.5 48.109 236.76 129-62.75 61.199-148.41 99-242.76 99-90.637 0-173.27-34.859-235.26-91.848z"/>
</svg>
