<?xml version="1.0" encoding="UTF-8"?>
<svg fill="#4b5e26" width="35px" height="35px" version="1.1" viewBox="0 0 1200 1200" xmlns="http://www.w3.org/2000/svg">
 <path d="m1051.6 996.28-151.21-259.39 46.352-30.922c10.262-6.8477 13.496-20.414 7.4219-31.125l-178.55-314.79 47.312-23.832c6.1289-3.0898 10.605-8.6797 12.262-15.316 1.6602-6.6406 0.33594-13.668-3.6289-19.258l-206.86-291.71c-0.066406-0.09375-0.14062-0.17578-0.21094-0.26562-0.28906-0.39844-0.59766-0.78516-0.91797-1.1641-0.20312-0.25-0.40625-0.49609-0.61719-0.73047-0.27734-0.30859-0.57031-0.59766-0.86328-0.89062-0.28906-0.28906-0.58203-0.57422-0.88281-0.84766-0.24219-0.21484-0.49609-0.42187-0.74609-0.63281-0.37891-0.30859-0.75781-0.61328-1.1523-0.89844-0.09375-0.070312-0.17578-0.14844-0.27344-0.21484-0.14453-0.10156-0.29297-0.17969-0.4375-0.27734-0.41406-0.27734-0.83203-0.54297-1.2539-0.78906-0.27734-0.16406-0.5625-0.31641-0.84375-0.46484-0.38281-0.20312-0.76562-0.39844-1.1562-0.57812-0.34375-0.16016-0.69531-0.3125-1.043-0.45312-0.33594-0.13672-0.67578-0.26172-1.0156-0.38281-0.40234-0.14453-0.8125-0.27344-1.2227-0.39453-0.30859-0.089844-0.61328-0.17188-0.92187-0.25-0.4375-0.10547-0.87109-0.20312-1.3086-0.28516-0.30859-0.058594-0.61719-0.11328-0.93359-0.15625-0.42578-0.0625-0.85547-0.12109-1.2852-0.15625-0.34375-0.035156-0.68359-0.054688-1.0312-0.074219-0.39453-0.019531-0.78516-0.03125-1.1797-0.03125-0.39062 0-0.77734 0.011719-1.1641 0.03125-0.35156 0.019531-0.69922 0.039062-1.0469 0.074219-0.42578 0.039062-0.84766 0.09375-1.2734 0.15234-0.31641 0.046876-0.62891 0.10156-0.94531 0.16016-0.43359 0.082031-0.86719 0.17969-1.2969 0.28516-0.3125 0.078125-0.62109 0.16406-0.93359 0.25391-0.40625 0.11719-0.80859 0.24609-1.2109 0.39062-0.34375 0.12109-0.68359 0.24609-1.0234 0.38281-0.34766 0.14453-0.69922 0.29297-1.0391 0.45312-0.39062 0.17969-0.77344 0.375-1.1523 0.57422-0.28516 0.15234-0.57031 0.30469-0.85156 0.46875-0.42188 0.24609-0.83203 0.51172-1.2422 0.78516-0.14844 0.097656-0.30078 0.17969-0.44922 0.28125-0.097656 0.070312-0.17969 0.14844-0.27734 0.21875-0.39062 0.28516-0.76562 0.58594-1.1406 0.89062-0.25391 0.21094-0.51172 0.42188-0.75391 0.64062-0.30078 0.26953-0.58984 0.55078-0.87891 0.83984-0.29297 0.29297-0.58594 0.58594-0.86328 0.89453-0.21484 0.23828-0.41797 0.48047-0.62109 0.72656-0.31641 0.38281-0.625 0.76953-0.91797 1.168-0.066406 0.089844-0.14453 0.17188-0.21094 0.26562l-206.86 291.71c-3.9648 5.5898-5.2891 12.617-3.6289 19.258 1.6562 6.6367 6.1328 12.227 12.262 15.316l47.312 23.832-178.55 314.79c-6.0781 10.711-2.8438 24.277 7.4219 31.125l46.352 30.922-151.21 259.39c-4.2461 7.2773-4.2617 16.262-0.042968 23.555 4.2148 7.293 12.02 11.789 20.469 11.789h402.14v144.83c0 12.992 10.578 23.527 23.625 23.527 13.043 0 23.621-10.535 23.621-23.527v-144.83h402.14c8.4492 0 16.258-4.4961 20.473-11.789 4.2148-7.293 4.1992-16.277-0.042969-23.555z" fill-rule="evenodd"/>
</svg>
