<?xml version="1.0" encoding="UTF-8"?>
<svg width="1200pt" height="1200pt" version="1.1" viewBox="0 0 1200 1200" xmlns="http://www.w3.org/2000/svg">
 <g fill="#4b5d26">
  <path d="m1140 861.48c1.8008-3.6016 3.3594-7.3203 5.0391-10.922 9.0898-19.547 17.102-39.574 24-60 2.0391-5.8789 3.9609-12 5.6406-17.641v0.003906c36.094-119.92 33.758-248.13-6.6797-366.65-40.434-118.53-116.95-221.43-218.8-294.29-101.86-72.855-223.96-112.01-349.2-111.98-50.59 0-100.98 6.3281-150 18.84-9.4805 2.5195-19.078 5.1602-28.441 8.1602-92.812 28.863-177.2 79.895-245.88 148.68-13.559 13.68-26.398 27.84-38.641 42.719-88.559 107.45-136.98 242.36-136.98 381.6s48.426 274.15 136.98 381.6c12 14.879 25.078 29.039 38.641 42.719 68.676 68.785 153.07 119.82 245.88 148.68 9.3594 3 18.961 5.6406 28.441 8.1602 49.02 12.512 99.41 18.84 150 18.84 112.72-0.003906 223.16-31.762 318.66-91.633 95.504-59.871 172.21-145.43 221.34-246.89zm-540 326.52c-24.312-0.042969-48.602-1.6055-72.719-4.6797l3.4805-3.4805c3.9648-3.3203 6.8477-7.75 8.2773-12.719 0.53516-3.4844 0.33203-7.043-0.59766-10.441-2.7109-11.988-7.6797-23.352-14.641-33.48-0.89062-1.1758-1.6172-2.4688-2.1602-3.8398-0.14844-1.1133-0.14844-2.2461 0-3.3594 0.25781-2.0703 0.25781-4.168 0-6.2383-0.57031-3.7227-2.0117-7.2578-4.1992-10.32-0.89844-1.3633-1.6602-2.8125-2.2812-4.3203-0.26562-1.9922-0.26562-4.0117 0-6 0.5625-19.066-0.16016-38.152-2.1602-57.121 0.066406-0.55859 0.066406-1.1211 0-1.6797-1.4414-12.961-3.3594-25.801-5.8789-38.398-0.85547-3.6289-2.0586-7.168-3.6016-10.562-2.2227-3.582-3.1523-7.8164-2.6406-12v-1.0781c0.71875-1.6797 1.5586-3.2383 2.1602-4.9219l5.5195-12.961c2.9062-8.8672 7.9805-16.867 14.762-23.277l1.5586-1.5586v-0.003906c6.043-4.3438 10.035-10.984 11.043-18.359-0.32422-5.5664-2.3828-10.895-5.8828-15.238-7.0625-11.051-15.094-21.453-24-31.082-2.6406-2.7617-5.3984-5.3984-8.1602-7.9219v0.003907c-5.7461-5.082-10.898-10.801-15.359-17.039-4.7227-8.5195-8.1211-17.703-10.078-27.242-0.83984-3.3594-1.6797-6.7188-2.6406-10.078-6.3711-21.262-17.168-40.93-31.68-57.723l1.1992-0.96094c5.0391-3.6016 9.8398-7.0781 11.039-12v0.003906c1.1367-5.625 1.1367-11.418 0-17.043v-3.4805c-0.59375-3.9805 0.30469-8.0391 2.5195-11.398 1.6172-1.4336 3.3867-2.6836 5.2812-3.7188 4.8711-2.0625 8.832-5.8125 11.16-10.562 1.3477-3.8516 1.6406-7.9961 0.83984-12-0.41797-1.8555-0.41797-3.7812 0-5.6406 1.3711-2.1836 3.7812-3.5 6.3594-3.4766 3.5469 0.10938 7.0625 0.71484 10.441 1.7969h2.0391c6.8398 1.6797 13.68 2.8789 20.281 3.9609l19.559 3.1211c17.398 2.8789 34.801 5.7617 52.199 8.8789 4.4648 0.94531 9 1.5039 13.562 1.6797 2.9922 0.24609 6.0039 0.24609 9 0h2.3984c15.293-0.95703 30.641-0.47656 45.84 1.4414 7.6211-0.26172 15.121 1.9727 21.359 6.3594 1.0234 1.0625 1.9844 2.1875 2.8789 3.3594 1.9375 2.6016 4.2422 4.9023 6.8438 6.8398 2.8047 1.6641 5.8359 2.918 9 3.7227 6 1.8008 12 4.1992 17.762 6.4805 5.7617 2.2812 12 4.9219 18.84 6.8398l-0.003907-0.003906c4.8906 1.3398 9.9297 2.0664 15 2.1602 3.668 0.085938 7.3203 0.48438 10.922 1.2031 4.6797 1.5469 9.0312 3.9453 12.84 7.0781 4.3516 3.25 9.1094 5.9141 14.16 7.9219 11.496 5.7812 22.602 12.312 33.238 19.559l1.8008 1.1992 10.68 6.7188v0.003906c1.3672 0.84766 2.6875 1.7695 3.9609 2.7578 2.8477 2.4258 6.0938 4.332 9.5977 5.6406 4.3984 1.0703 8.9219 1.5156 13.441 1.3203 7.2773 0.87891 14.348 3.0312 20.879 6.3594 20.004 8.1914 39.445 17.691 58.199 28.441 7.1992 4.1992 14.16 8.8789 21.121 13.559 14.953 10.711 31.055 19.727 48 26.879 0.71094 0.16797 1.4492 0.16797 2.1602 0 2.5039-0.066406 4.7266-1.625 5.6406-3.957 1.1367-3.082-0.41406-6.5039-3.4805-7.6836-16.051-6.7969-31.27-15.414-45.359-25.68-7.1992-4.8008-14.281-9.6016-21.602-13.922v0.003906c-19.363-10.98-39.402-20.719-60-29.16-7.8672-3.8828-16.355-6.3594-25.078-7.3203-3.457 0.09375-6.9102-0.14844-10.32-0.71875-2.2148-0.98047-4.2734-2.2773-6.1211-3.8398-1.6094-1.2578-3.293-2.418-5.0391-3.4805 26.309-6.0039 53.363-8.0664 80.281-6.1211 9.3555 0.58594 18.617 2.2344 27.598 4.9219 11.395 4.3672 22.266 10 32.402 16.797l36 22.32c9.0938 5.3516 17.832 11.281 26.16 17.762 3.1211 2.5195 6.1211 5.2812 9.1211 7.9219l-0.003906-0.003906c6.4062 6.25 13.492 11.766 21.121 16.441 9.4805 8.7617 38.398 20.16 62.16 28.199-48.348 98.848-123.46 182.14-216.8 240.42-93.34 58.273-201.16 89.184-311.2 89.223zm-112.08-10.801c3.1211-5.1602 6.1211-10.32 9-15.359 5.6406-9.6016 12-19.559 18.359-29.762 5.5391 8.3242 9.5977 17.539 12 27.242 0.27734 1.75 0.27734 3.5312 0 5.2812-1.0234 2.6328-2.7188 4.9492-4.9219 6.7188l-10.199 10.078c-8.1602-1.1992-16.199-2.6367-24.238-4.1992zm9.2383-230.52-5.1602 13.32c-2.8984 7.9922-6.5938 15.672-11.039 22.922 0-17.52-0.96094-36-2.0391-54.602-2.3438-25.828-2.3438-51.812 0-77.641 3.7461 4.2461 7.7539 8.2539 12 12 2.6406 2.5195 5.1602 4.9219 7.6797 7.5586l3.1211 3.7188v3l-0.003906 0.003907c0.015625 4.043 0.5 8.0664 1.4414 12 0.85156 5.2344 1.1328 10.543 0.83984 15.84v27.238c-2.8789 4.5781-5.1758 9.4961-6.8398 14.641zm17.762-54.48c1.6797 2.3984 3.3594 4.6797 4.9219 7.0781l-0.003906 0.003906c1.9922 2.3672 3.3203 5.2266 3.8398 8.2773 0 3.2383-3.7188 6.6016-7.1992 9.8398v-12.84c-0.48047-4.5586-0.48047-8.1602-1.5586-12.359zm-48 36c1.9453 23.949 2.4258 47.992 1.4375 72v0.96094c0 0.96094-1.3203 2.1602-2.0391 3.1211-10.215 13.82-18.832 28.754-25.68 44.52-3.8398-38.762-5.7617-81.48-7.1992-122.52-0.66406-6.0234-0.66406-12.098 0-18.121 0-2.2812 1.0781-4.4414 1.6797-6.6016 0.60156-2.1602 1.1992-4.4414 1.6797-6.7188 1.3281-7.2812 1.8516-14.684 1.5586-22.078 0-40.32-1.5586-79.199-3.2383-116.16 10.293 13.711 18.055 29.156 22.918 45.598 0.96094 3.1211 1.8008 6.3594 2.6406 9.6016 1.8281 8.2305 4.4414 16.266 7.8008 24-5.8789 23.879-3.9609 57.359-1.9219 92.758zm-43.922-184.2c1.9219 40.559 3.7188 84 3.8398 128.88 0.26953 6.5508-0.17188 13.109-1.3203 19.562 0 1.9219-0.96094 3.8398-1.4414 5.8789-0.48047 2.0391-1.4414 5.0391-1.9219 7.5586h0.003906c-1.1055 6.9023-1.3867 13.914-0.83984 20.883 0.71875 19.199 1.4414 38.762 2.5195 58.199-16.559-2.2812-33.359-4.9219-47.039-7.3203 0.96094-21.121 3.9609-43.199 6.9609-64.68 4.7773-28.719 7.2656-57.77 7.4375-86.883-0.25781-4.5898-0.81641-9.1602-1.6797-13.68-1.9336-6.9883-1.9336-14.371 0-21.359 0.81641-1.7969 1.7773-3.5234 2.8789-5.1602 2.1367-3.2148 3.8711-6.6797 5.1602-10.32 0.875-9.5 0.875-19.059 0-28.559v-5.1602c0-37.078 1.1992-66.719 2.5195-96s2.6406-59.039 2.5195-96.84v-129.84h0.003906c0-1.5898-0.63281-3.1172-1.7578-4.2422s-2.6523-1.7578-4.2422-1.7578c-3.3164 0-6 2.6875-6 6v129.84c0 37.559-1.1992 67.441-2.5195 96-1.3203 28.559-2.6406 58.441-2.5195 96v5.3984 25.199l-0.003906 0.003906c-1.1914 2.5039-2.5156 4.9492-3.957 7.3203-1.3984 2.1055-2.6406 4.3125-3.7227 6.5977-2.832 9.0781-3.0391 18.77-0.59766 27.961 0.74609 3.9648 1.2266 7.9727 1.4375 12 0.12891 28.977-2.1172 57.91-6.7188 86.52-3 21.121-5.8789 42.961-6.9609 64.078-5.4727-0.86328-10.855-2.2305-16.078-4.0781-3.8398-1.9219-8.0391-3.7188-12-5.6406l-0.96094-0.48047c0-25.32 2.1602-50.762 4.0781-75.48 1.9219-24.719 3.6016-48 4.0781-72.961 0-14.039 0-28.078 0.96094-42.121 1.0781-38.879 3.2383-78.359 5.3984-116.64l1.5586-26.641c0-8.0391 1.1992-16.441 2.0391-24.84l0.007813 0.003907c2.5703-20.418 3.0508-41.043 1.4375-61.559-2.082-20.613-3.082-41.324-3-62.039v-20.879c0-18.48 0-36.961 1.0781-54.84l0.003906-0.003906c3.8203-40.141 1.3125-80.637-7.4414-120 0.23438-3.9961 0.23438-8.0039 0-12-0.12891-4.3711 0.11328-8.7461 0.72266-13.078 0.82031-3.8477 2.0664-7.5898 3.7188-11.16 2.7812-5.7148 4.4492-11.902 4.918-18.242v-1.1992c-0.13672-1.1133-0.13672-2.2422 0-3.3594 0.92188-2.7969 2.125-5.4922 3.6016-8.0391 1.75-3.0938 3.1953-6.3477 4.3203-9.7227l0.60156-1.6797h-0.003906c2.4219-6.6094 3.6406-13.598 3.6016-20.637-0.085938-3.6992-0.40625-7.3867-0.96094-11.043-0.90625-5.1484-1.1094-10.395-0.59766-15.598 0.58594-3.0156 1.5117-5.9531 2.7578-8.7617 3.1367 9.5586 5.0312 19.48 5.6406 29.52 0 6.2383 1.3203 12 2.5195 18.84 1.1992 6.8398 1.9219 36 2.6406 60 0 17.641 1.0781 35.039 1.5586 45.84 0.1875 3.1953 2.8047 5.7031 6 5.7617 1.5938-0.09375 3.082-0.81641 4.1406-2.0078 1.0586-1.1953 1.5977-2.7617 1.5-4.3516 0-10.68-1.0781-27.961-1.5586-45.602-1.0781-35.281-1.8008-57.121-2.8789-62.398-1.0781-5.2812-1.6797-11.398-2.2812-17.52-0.67969-10.594-2.6133-21.066-5.7617-31.203 4.293 1.3555 7.9844 4.1523 10.441 7.9219 0.96094 1.6953 2.1758 3.2305 3.6016 4.5586 1.6719 1.4023 3.582 2.5 5.6367 3.2422 9.7188 4.0781 19.559 8.1602 29.762 12 0.83984 40.559 3.7188 81.48 6.6016 121.08 2.3984 34.68 5.0391 70.559 6.1211 105.84l4.4414 138.24-0.003906 0.003906c-0.050781 0.23438-0.050781 0.48047 0 0.71875-0.51562 10.816 0.53516 21.648 3.1211 32.16 1.0781 5.1602 2.3984 11.16 3.6016 18.961h-0.003906c0.46875 2.8867 2.9531 5.0195 5.8828 5.0391h1.0781c3.2344-0.55078 5.4258-3.5977 4.9219-6.8398-1.3203-7.9219-2.5195-14.16-3.7188-19.441h-0.003906c-2.4258-9.5195-3.4375-19.344-3-29.16 0.058594-0.4375 0.058594-0.87891 0-1.3203l-4.4414-138.84c-1.1992-36-3.7188-71.398-6.2383-106.2-2.7617-38.281-5.5195-77.762-6.3594-117 2.0391 0 4.0781 1.0781 6.2383 1.4414l4.9219 0.83984c4.8164 0.59766 9.5625 1.6836 14.16 3.2383 6.7305 3.0273 12.5 7.8438 16.68 13.922-1.9219 19.441-0.96094 120.72-0.96094 124.56-1.4336 22.02-0.26562 44.133 3.4805 65.879l2.1602 14.52c0.60156 3.8398 1.1992 7.5586 2.0391 11.281 1.1523 4.4531 2.5938 8.8203 4.3203 13.082 1.3203 3.8398 2.7617 7.8008 3.8398 12 1.7891 9.0039 2.4336 18.195 1.9219 27.359 0.47656 33.887 3.043 67.711 7.6797 101.28 3.2383 28.441 6.6016 57.602 7.3203 85.68l-4.6797-0.83984c-6.4805-1.0781-13.078-2.1602-19.32-3.7188l-2.0391-0.60156c-4.5469-1.4141-9.2812-2.1406-14.043-2.1602-3.707 0.085937-7.3086 1.2734-10.344 3.4102-3.0352 2.1367-5.3633 5.125-6.6953 8.5898-0.85938 3.6289-0.85938 7.4102 0 11.039 0.36719 1.9023 0.36719 3.8594 0 5.7617-0.71875 1.6797-3.1211 3-5.8789 4.5586-3.0234 1.6055-5.8125 3.625-8.2812 6-5.0039 6.1875-7.0234 14.266-5.5195 22.078v3.8398c0.71094 3.9688 0.71094 8.0352 0 12-1.9648 2.1523-4.2266 4.0117-6.7188 5.5234-5.3984 4.0781-10.199 7.4414-9.4805 12.719zm-195 135.24c-1.0664-10.289-1.0664-20.664 0-30.957 0.96094-5.6406 2.3984-11.16 3.9609-16.922 0.96094-3.9609 2.0391-7.8008 2.8789-12 4.3594-24.711 5.3281-49.906 2.8789-74.879-0.0625-1.5938-0.75391-3.0938-1.9258-4.1758-1.168-1.0781-2.7227-1.6484-4.3125-1.5859-3.3359 0.19531-5.8984 3.0234-5.7617 6.3594 2.3672 24.008 1.5195 48.223-2.5195 72-0.83984 3.7188-1.9219 7.4414-2.8789 11.16-1.5586 5.8789-3.1211 12-4.1992 18.121-1.1602 11.09-1.1992 22.266-0.12109 33.359 0.86328 11.195 0.21484 22.457-1.9219 33.48-3.7656-3.3477-5.9102-8.1562-5.8789-13.199 0.23438-5.6719-1.5547-11.242-5.0391-15.719l-1.3203-1.6797c-1.3711-1.4688-2.5781-3.0781-3.6016-4.8008-0.85938-1.6758-1.6211-3.3984-2.2773-5.1602 0-1.8008-1.3203-3.4805-2.0391-5.1602-4.625-7.9922-11.031-14.809-18.723-19.922l-3.6016-2.7617c-2.6406-2.0391-4.9219-4.5586-7.4414-6.8398 0.71875-25.68 2.3984-51.719 4.8008-77.398h0.003907c0.29297-5.0664 1.0977-10.094 2.3984-15 1.0898-3.4453 2.4141-6.8125 3.9609-10.078l2.0391-4.6797c4.7148-11.461 7.4727-23.629 8.1602-36v-6.6016c0.0625-4.7461 0.50391-9.4805 1.3203-14.16 0.96484-4.1055 2.2891-8.1211 3.9609-12 1.7266-4.2188 3.168-8.5469 4.3203-12.961 1.168-6.125 1.4492-12.391 0.83984-18.598-0.48828-4.668-0.48828-9.375 0-14.039 3.8281-17.254 9.8359-33.945 17.879-49.68l1.8008-4.0781v-0.003906c1.1211-2.9648-0.25781-6.2891-3.1484-7.5938-2.8906-1.3008-6.293-0.12891-7.7734 2.6758l-1.8008 3.9609 0.003906-0.003906c-8.5195 16.668-14.812 34.379-18.723 52.68-0.85156 5.4805-1.0508 11.039-0.59766 16.562 0.67578 5.0977 0.67578 10.262 0 15.359-0.92187 4.1055-2.207 8.1211-3.8398 12-1.8516 4.4336-3.3359 9.0078-4.4414 13.68-0.98437 5.3438-1.5039 10.766-1.5586 16.199v6.2383 0.003906c-0.63672 10.934-3.1133 21.684-7.3203 31.797l-1.9219 4.4414c-1.7344 3.9023-3.2188 7.9102-4.4414 12-1.5312 5.6484-2.4961 11.438-2.8789 17.281-2.0391 22.199-3.4805 44.762-4.3203 67.199-12.84-15.062-24.477-31.113-34.801-48 4.0781-13.82 6.457-28.086 7.082-42.48 0-4.2383 0.35938-8.2383 1.0781-12 0.69922-9.6797 2.2656-19.277 4.6836-28.68 2.8008-8.9766 6.2891-17.723 10.438-26.16 2.5195-5.5195 4.9219-10.922 7.1992-16.441 5.5781-15.211 10.027-30.812 13.32-46.68 2.7617-12 5.7617-24.719 9.7188-36l0.96094-3c1.7539-4.6367 3.1211-9.4141 4.082-14.277 0.63672-3.7344 1.0352-7.5 1.1992-11.281v-4.3203c1.5117-13.332 4.2031-26.504 8.0391-39.359 4.3203-14.27 7.1328-28.949 8.4023-43.801 4.8945 3.4453 10.523 5.7031 16.438 6.6016-1.0547 13.039-3.0195 25.992-5.8789 38.758-1.082 6.2617-1.3633 12.633-0.83984 18.961-0.03125 7.0156-0.42969 14.027-1.1992 21-0.50781 3.2422 1.6836 6.2891 4.918 6.8398h0.96094c2.9727 0.039062 5.5234-2.1055 6-5.0391 0.875-7.5312 1.3164-15.102 1.3203-22.68-0.25391-5.0391-0.25391-10.086 0-15.121 3.3594-14.164 5.6055-28.566 6.7188-43.078 5.1289-0.625 10.07-2.3008 14.52-4.9219 5.5781-3.1211 10.57-7.1797 14.762-12 0 24-1.0781 49.078-2.6406 72l-6.2383 99.238c-0.125 5.3438-1.1836 10.621-3.1211 15.602-1.0352 2.1953-2.2812 4.2852-3.7188 6.2383-1.6211 2.3945-3.1055 4.8789-4.4414 7.4414-3.2578 8.3125-4.5703 17.262-3.8398 26.16v57c0.0625 3.2891 2.7148 5.9375 6 6 1.582 0 3.0938-0.63672 4.1992-1.7656 1.1094-1.1289 1.7148-2.6523 1.6797-4.2344v-57c-1.5391-9.4492 0.75-19.121 6.3594-26.879 1.8281-2.5391 3.4336-5.2305 4.8008-8.0391 2.5234-6.4258 3.8242-13.262 3.8398-20.16l5.8828-99.602c2.5703-29.164 3.293-58.465 2.1602-87.719l30.961-41.039v28.68c0 24.961-0.83984 50.762 0 74.52 0 11.039 0.96094 22.199 1.5586 33.359 2.0977 25.156 2.0977 50.441 0 75.598-0.96094 8.2812-1.8008 16.559-2.6406 24.84-1.4414 16.559-2.5195 33.121-3.6016 49.68l-3 44.879c-2.6406 40.078-5.1602 80.16-7.8008 120 0 2.1602-0.96094 7.0781-1.9219 12l0.003907 0.003906c-1.4883 7.3672-2.4883 14.82-3 22.32 0 12-3.2383 48-4.8008 63.238h-0.96094c-5.0391-0.71875-10.078-1.4414-15.359-2.3984l-27.961-13.801c3.4727-13.344 4.6875-27.176 3.6016-40.922zm-138.72-165.12c1.543-1.4023 2.8789-3.0195 3.957-4.8008 2.6055-4.6953 4.3516-9.8125 5.1602-15.121 0-2.2812 0.96094-4.4414 1.5586-6.4805 2.8789-8.8789 5.1602-18.48 7.4414-27.719 3.4883-17.457 9.0898-34.422 16.68-50.52 1.3633-2.6523 2.8828-5.2188 4.5625-7.6797 4.9883-6.4922 8.2852-14.121 9.5977-22.199 0.30078-2.6719 0.30078-5.3711 0-8.043-0.30469-2.5078-0.30469-5.0469 0-7.5586 0.53516-2.0781 1.3008-4.0898 2.2812-6l0.83984-1.9219c5.2656-13.797 8.3438-28.332 9.1211-43.078 0-5.6406 1.1992-11.16 2.0391-16.68 1.9492-10.586 4.9219-20.953 8.8789-30.961 2.0391-5.5195 3.9609-11.039 5.6406-16.801 0.44531-1.4883 0.76563-3.0156 0.96094-4.5586 0.24219-1.6758 0.64453-3.3203 1.1992-4.9219h0.71875l1.6836 1.6836c1.5117 1.8945 3.3398 3.5156 5.3984 4.7969 1.6523 0.94141 3.5 1.4766 5.3984 1.5625-0.44922 16.305-3.1953 32.461-8.1602 48-3.9688 13.535-6.7812 27.387-8.3984 41.398v4.5586c-0.14062 3.2969-0.46094 6.582-0.96094 9.8438-0.87891 4.2812-2.082 8.4961-3.5977 12.598l-1.0781 3c-4.1992 12-7.1992 25.32-10.078 37.68h-0.003906c-3.1406 15.289-7.3906 30.332-12.723 45-2.1602 5.3984-4.5586 10.559-6.9609 15.84h0.003906c-4.3984 9.0352-8.1289 18.379-11.16 27.961-2.5742 9.8359-4.3008 19.871-5.1602 30 0 4.0781-0.83984 8.2812-1.1992 12-0.62891 10.066-1.8711 20.086-3.7227 30-10.625-15.117-17.457-32.566-19.918-50.879zm13.918 63.84c-4.9219 5.1602-11.039 12.719-18.238 21.84-7.1992 9.1211-16.801 21-25.801 30.719-10.977-25.723-20.117-52.188-27.359-79.199l40.199-25.199 4.8008-2.8789 1.9219-1.0781-0.003906-0.003906c4.3203 20.059 12.648 39.039 24.48 55.801zm77.879-345.12c4.7695-2.4648 10.004-3.8945 15.363-4.1992h4.4414-0.003906c4.0391 0.17969 8.0781-0.22656 12-1.1992l3.8398-1.1992v-0.003907c1.0781-0.48438 2.2031-0.84375 3.3594-1.0781 2.4688-0.375 4.9766-0.375 7.4414 0h2.1602c8.1289 0.17578 16.234-0.95703 24-3.3594l-5.2812 6.9609c-4.3906 6.8203-10.102 12.695-16.797 17.277-5.3711 2.8516-11.508 3.9258-17.523 3.0625-6.0195-0.86328-11.605-3.6172-15.957-7.8633-1.5977-1.8281-3.5586-3.2969-5.7617-4.3164-2.0508-0.86328-4.2539-1.3125-6.4805-1.3203-0.75781 0.085938-1.5195 0.085938-2.2773 0-0.99219-0.76953-1.8477-1.7031-2.5234-2.7617zm103.44 441.36c0-3.3594 1.6797-13.078 2.8789-20.16 1.1992-7.0781 1.9219-12 2.0391-13.801 2.6406-40.078 5.1602-80.16 7.8008-120l2.7617-45.238c1.0781-16.441 2.1602-32.879 3.7188-49.199 0.71875-8.2812 1.5586-16.441 2.5195-24 2.2812-25.871 2.2812-51.891 0-77.762-0.71875-11.039-1.3203-22.078-1.5586-32.879v-74.039c0-15.121 0.60156-30.121 0.60156-44.398l6.1211-8.1602-0.003906-0.003906c5.8203-7.1133 10.852-14.836 15-23.039 2.4883-5.6562 4.6133-11.469 6.3633-17.398 1.2617-4.3516 2.7422-8.6406 4.4375-12.84 4.75 32.008 5.957 64.445 3.6016 96.719-0.83984 18-1.8008 36.719-1.1992 55.68v20.762c-0.097656 21.121 0.94531 42.23 3.1172 63.238 1.4453 19.684 0.92188 39.461-1.5586 59.039-0.83984 8.5195-1.5586 17.039-2.0391 25.32l-1.5586 26.52c-2.1602 38.398-4.3203 78-5.3984 117.12 0 14.039-0.71875 28.078-0.96094 42.121 0 24-2.2812 48.719-4.0781 72-1.8047 23.277-3.125 46.199-3.125 70.199-2.375-1.1484-4.6602-2.4727-6.8398-3.9609-1.5586-1.0781-3.1211-2.1602-4.5586-3.3594-4.4688-3.6562-9.3906-6.7227-14.641-9.1211-4.5352-1.7383-9.2422-2.9844-14.039-3.7188h-3.9609c1.0781-15.121 4.6797-52.801 4.5586-65.641zm210.6-650.76c16.523 15.445 28.902 34.797 36 56.277 0.71875 3.2383 1.1992 6.4805 1.8008 9.6016 0.60156 3.1211 0.96094 6.3594 1.6797 9.4805 2.3672 9.8945 5.7852 19.512 10.199 28.68 0 21.84-0.60156 43.559-1.5586 64.559-0.96094 21-1.8008 42.961-1.4414 65.281 0.94141 21.113 3.6719 42.109 8.1602 62.758 4.2891 19.75 6.9414 39.816 7.918 60v3.4805c-0.49609 26.785 1.918 53.539 7.1992 79.801l-34.32-5.7617h-2.7617c-0.60156-29.281-3.9609-60-7.4414-88.922l0.003906 0.003907c-4.5156-33.098-7.043-66.438-7.5586-99.84 0.54688-10.176-0.21875-20.379-2.2812-30.359-1.1484-4.4883-2.5898-8.8984-4.3203-13.199-1.5195-3.918-2.8047-7.9258-3.8398-12-0.8125-3.4805-1.4141-7.0078-1.7969-10.562l-2.1602-14.16c-3.5938-20.996-4.7188-42.34-3.3633-63.598-0.35938-21.723-0.59766-71.52-0.11719-101.52zm58.441 233.88c0-21.84 0-43.559 1.4414-64.559 0-10.801 0.96094-21.719 1.1992-32.879v1.5586h-0.003906c1.5312 6.875 3.6172 13.621 6.2422 20.16 1.1992 2.6406 2.5195 5.1602 3.8398 7.6797 1.9648 3.5234 3.6094 7.2188 4.918 11.039 0.60547 1.9688 1.0898 3.9727 1.4414 6 0 2.1602 0.96094 4.3203 1.5586 6.4805 1.6523 5.125 3.8242 10.07 6.4805 14.758 6.3438 11.664 13.273 22.996 20.762 33.961 1.1992 72 2.2812 133.92 4.6797 206.28h-4.3203-7.6797c-4.0352-0.125-8.0508-0.60938-12-1.4414l-5.3984-0.96094v-0.83984h-0.003906c-5.8398-26.707-8.418-54.027-7.6797-81.359v-3.4805c-0.94141-21.031-3.6719-41.949-8.1602-62.52-4.1328-19.715-6.582-39.746-7.3203-59.879zm90.121 103.2c0 3.8398 0.83984 7.3203 0.83984 10.199h-0.003907c0.066407 3.2695 2.7344 5.8828 6 5.8828 1.5938-0.03125 3.1055-0.69531 4.207-1.8438 1.1055-1.1484 1.707-2.6875 1.6719-4.2773 0-3.2383 0-7.0781-0.96094-11.281h0.003906c-1.3789-8.7461-1.3789-17.652 0-26.398 1.9219 2.2812 3.9609 4.5586 6 6.7188 2.4727 2.5 4.7969 5.1445 6.957 7.9219 3.5391 5.2109 6.5508 10.758 9 16.559l12 25.801c-1.3242 18.637-0.92188 37.355 1.2031 55.918 1.0781 15.84 2.2812 32.16 1.9219 43.32h-0.003907c-1.0469-0.32031-2.0547-0.76172-3-1.3203-1.6016-1.2734-3.0156-2.7656-4.1992-4.4375-1.2266-1.5625-2.5508-3.043-3.9609-4.4414-5.0625-4.5273-11.383-7.4141-18.121-8.2812-0.058593-9.7109-0.74219-19.41-2.0391-29.039-2.0352-13.582-2.4414-27.359-1.1992-41.039 0.35156-3.2773-2.0078-6.2227-5.2812-6.6016-3.2773-0.42578-6.2852 1.8828-6.7188 5.1602-1.332 14.602-0.89062 29.309 1.3203 43.801 1.0312 8.6836 1.5898 17.418 1.6797 26.16-10.762-1.1484-21.578-1.75-32.398-1.8008-2.1602-66.238-3.2383-124.2-4.3203-188.4 0.23828 1.3633 1.0156 2.5742 2.1602 3.3594 8.4961 5.3594 15.973 12.184 22.078 20.16 2.4062 3.8203 4.4961 7.8359 6.2422 12 0.83984 1.8008 1.8008 3.7188 2.6406 5.6406h-0.003906c-5.4141 12.809-6.7109 26.98-3.7188 40.559zm58.801 84c-0.71875-10.199-1.4414-20.52-1.8008-29.762 1.1992 2.8789 2.3984 5.6406 3.4805 8.5195 1.0781 2.8789 3.2383 8.5195 4.8008 12.961h-0.003906c8.8789 21.129 15.516 43.129 19.801 65.641-4.9219-1.6797-9.7188-3.4805-14.762-5.5195l-9.7188-3.7188c0.34375-15.902-0.25781-31.809-1.8008-47.641zm431.04 202.32c-24-7.9219-52.441-19.32-60-26.398l-1.3203-0.96094c-6.9141-4.4336-13.316-9.625-19.078-15.48-3.1211-2.8789-6.2383-5.6406-9.4805-8.2812-8.8594-6.8242-18.113-13.113-27.719-18.84l-36-22.32c-7.4375-4.7422-15.129-9.0703-23.043-12.957 0.62891-2.1836 1.4297-4.3086 2.4023-6.3633 0.96875-1.9805 1.8125-4.0273 2.5195-6.1172l5.2773-21.121c0.75781-3.2422-1.2148-6.4922-4.4375-7.3203-1.5312-0.43359-3.1719-0.21484-4.5352 0.60156-1.3633 0.82031-2.3281 2.1641-2.6641 3.7188l-5.5195 21.84c-0.50391 1.4414-1.1055 2.8438-1.8008 4.1992-0.99219 2.1953-1.875 4.4375-2.6406 6.7227h-0.71875c-9.8594-3.1055-20.051-5.0352-30.363-5.7617-32.324-1.832-64.738 1.5312-96 9.9609-10.684-7.3984-21.961-13.902-33.719-19.441-1.5781-0.63672-3.1016-1.4023-4.5586-2.2812 0.33594-13.734 2.6406-27.355 6.8398-40.438 1.0781-4.4414 2.6406-8.7617 4.0781-13.078v-0.003906c2.1953-5.875 4-11.887 5.4023-18 1.8789-10.812 2.6445-21.789 2.2773-32.758v-32.402c-0.0625-3.2852-2.7109-5.9336-6-6-3.3125 0-6 2.6875-6 6v32.402c0.34766 10.121-0.33594 20.254-2.0391 30.238-1.2812 5.4375-2.8438 10.805-4.6797 16.082-1.8398 4.8672-3.4023 9.8359-4.6797 14.879-3.3711 11.316-5.6602 22.93-6.8398 34.68-3.6797-2.4141-7.7344-4.1953-12-5.2812-4.3438-0.91797-8.7617-1.4414-13.199-1.5586h-2.8828c-4.1172-24.734-11.125-48.898-20.879-72-1.6797-4.3203-3.2383-8.6406-4.8008-12.84-3.3594-9.2383-7.4414-18.121-12-27l-15.719-33.602c-2.332-6.8242-5.3906-13.383-9.1211-19.559-2.4414-3.0586-5.043-5.9805-7.8008-8.7617-2.7617-2.8164-5.3281-5.8242-7.6797-9-2.6172-4.0273-4.8672-8.2852-6.7188-12.719-1.9688-4.8125-4.3789-9.4336-7.1992-13.801-6.2852-8.582-14.047-15.977-22.922-21.84-4.1992-5.3984-8.0391-11.16-12-16.922v0.003907c-0.34766-0.89844-0.92578-1.6836-1.6797-2.2812-7.2461-10.605-13.934-21.578-20.039-32.879-2.2031-3.8242-4.0508-7.8398-5.5195-12 0-1.9219-0.96094-3.7188-1.3203-5.6406s-0.96094-4.6797-1.6797-7.0781v-0.003906c-1.5742-4.5391-3.5859-8.9219-6-13.078-1.1992-2.2812-2.2812-4.5586-3.3594-6.9609-2.4336-5.8945-4.3203-12-5.6406-18.238-0.96094-3.9609-1.9219-7.8008-3.1211-12-2.5547-7.7695-5.5586-15.383-9-22.801-4.2578-9.0234-7.6758-18.426-10.199-28.078 0-2.8789-1.0781-5.7617-1.4414-8.7617-0.35938-3-1.1992-6.9609-1.9219-10.441h0.003906c-6.293-20.965-17.672-40.051-33.121-55.559l1.6797-0.96094c2.9844-1.6367 6.3164-2.543 9.7227-2.6406 1.2305-0.16797 2.4883 0.039062 3.5977 0.60156 1.5586 0.83984 2.6406 3.8398 3.7188 6.9609s1.0781 3 1.6797 4.4414l0.003906-0.003906c6.7461 11.715 17.477 20.617 30.238 25.082 0.83203 0.36719 1.7305 0.57031 2.6406 0.59766 2.3203-0.015625 4.4258-1.3711 5.3984-3.4766 0.69141-1.4297 0.77344-3.0781 0.23438-4.5703-0.54297-1.4922-1.668-2.6992-3.1133-3.3516-9.9727-3.3828-18.457-10.129-24-19.078 0-1.1992-0.96094-2.3984-1.3203-3.6016-1.2969-5.5391-4.6406-10.383-9.3594-13.559-2.9766-1.4883-6.2773-2.1875-9.6016-2.043-5.6133 0.18359-11.098 1.75-15.961 4.5625-6.4102-15.184-17.91-27.656-32.52-35.281-5.3945-1.9414-10.988-3.2695-16.68-3.9609l-4.8008-0.71875c-15.688-3.3984-30.941-8.5508-45.477-15.359-0.84766-0.30078-1.6523-0.70312-2.4023-1.1992-0.52734-0.60547-1.0078-1.2461-1.4375-1.9219l-0.83984-1.3203c-4.9297-6.918-12.656-11.309-21.121-12 0.78516-0.60547 1.6289-1.1289 2.5195-1.5586 8.4805-2.1641 17.445-1.4023 25.441 2.1602h1.8008l4.8008 1.5586h-0.003906c4.3086 1.457 8.7227 2.582 13.199 3.3594 5.2695 0.53516 10.574 0.53516 15.84 0h9c6.0547 0.39453 12.074 1.2344 18 2.5195 12.23 3.2422 25.094 3.2422 37.32 0 3.3672-1.2344 6.6523-2.6797 9.8398-4.3203 4.8828-3.3398 10.797-4.8281 16.68-4.1992l2.6406 0.60156c1.5547 0.37891 3.1992 0.11719 4.5625-0.71875 14.07-7.5703 29.742-11.684 45.719-12 45.195-0.29297 90.117 7.0898 132.84 21.84 9.8711 4.1523 19.453 8.9648 28.68 14.398 5.9961 3.582 12.207 6.7891 18.602 9.6016l5.6406 2.3984c6.0078 2.168 11.762 4.9844 17.156 8.3984 4.3086 3.375 8.3242 7.1094 12 11.16l49.922 50.883c5.3398 5.7148 11.074 11.047 17.16 15.957l6.6016 4.6797c-3.7188 0-7.4414 0-11.039-0.60156l-0.003906 0.003907c-5.4805 0.11719-10.957-0.40625-16.32-1.5586-3.3125-0.83203-6.6719 1.1836-7.5 4.5-0.82813 3.3125 1.1875 6.668 4.5 7.5 6.2227 1.3906 12.586 2.0352 18.961 1.918 4.0781 0 8.1602 0 12 0.71875 6.7383 1.0664 13.004 4.1172 18 8.7617l0.60156 0.60156c8.1094 13.152 17.824 25.246 28.918 36l2.7617 2.8789c13.441 14.281 26.641 29.039 39 43.922v-0.003906c6.0508 7.0039 11.547 14.465 16.438 22.32 2.0391 3.4805 3.8398 7.1992 5.6406 10.801 1.8008 3.6016 3.9609 8.0391 6.2383 12h0.003907c3.6641 5.9102 7.668 11.602 12 17.039 3 3.9609 5.8789 7.9219 8.6406 12 10.746 18.391 19.02 38.121 24.598 58.68 4.1992 12.719 8.3984 25.922 13.801 38.398v0.003907c7.6016 16.496 16.176 32.523 25.68 48 10.672 17.039 19.98 34.895 27.84 53.398 2.8789 7.1992 5.2812 14.52 7.5586 21.84 2.2812 7.3203 5.7617 17.762 9.4805 26.52 3.7188 8.7617 7.1992 15.48 11.039 22.922 1.5586 3 3.1211 6.1211 4.5586 9.1211 7.1992 14.398 13.559 29.52 19.68 44.16l2.7617 6.6016 0.003906-0.003907c-7.7344 25.035-17.113 49.527-28.082 73.32zm-533.52-834.84c121 0.015625 239.04 37.355 338.04 106.93 98.992 69.574 174.11 168 215.11 281.84 40.996 113.84 45.875 237.55 13.973 354.27-5.2812-12-10.801-25.199-16.922-37.559l-4.6797-9.4805c-3.7188-7.1992-7.5586-14.641-10.68-22.078-3.1211-7.4414-6.2383-17.039-9-25.559-2.7617-8.5195-4.9219-15.121-7.9219-22.559l0.003906-0.003907c-8.1172-19.078-17.703-37.496-28.684-55.082-9.2617-15.035-17.594-30.625-24.957-46.68-5.0664-12.207-9.5117-24.664-13.32-37.32-5.9883-21.555-14.742-42.246-26.039-61.559-2.8789-4.3203-6-8.5195-9.1211-12.719-3.9492-5.0898-7.6328-10.375-11.039-15.84-2.0391-3.6016-3.9609-7.4414-5.7617-11.16s-3.8398-7.8008-6.1211-12c-5.1328-8.4922-10.996-16.523-17.52-24-12-15.121-25.922-30-39.48-44.52l-2.7617-2.8789 0.003906-0.003907c-10.902-10.445-20.348-22.312-28.082-35.277v-0.83984c-4.5898-9.6875-12.047-17.73-21.359-23.043l-6.3594-4.5586c-5.5977-4.5664-10.891-9.5-15.84-14.762l-50.281-50.277c-4.2461-4.6953-8.9492-8.957-14.039-12.723-6.0859-3.9727-12.609-7.2344-19.441-9.7188l-5.3984-2.2812c-6.0195-2.6367-11.871-5.6406-17.52-9-9.6367-5.6562-19.613-10.707-29.879-15.117-44.879-15-92.016-22.105-139.32-21-17.012 0.31641-33.734 4.4141-48.961 12-8.6602-1.5703-17.59 0.23047-24.961 5.0391-2.7188 1.418-5.5234 2.6602-8.3984 3.7188-10.297 2.3906-21.027 2.1445-31.203-0.71875-6.5195-1.4062-13.141-2.3281-19.797-2.7617h-9.8398c-4.5469 0.48828-9.1328 0.48828-13.68 0-3.8867-0.63281-7.707-1.6367-11.402-3l-5.0391-1.5586h-1.8008c-10.801-4.6367-22.926-5.1484-34.078-1.4414-11.934 7.7422-20.039 20.164-22.32 34.203-0.70703 6.3555-0.50781 12.777 0.59766 19.078 0.46094 3.2227 0.73828 6.4688 0.83984 9.7188 0.027344 5.7461-1.0312 11.445-3.1172 16.801v1.8008c-1.0234 2.6406-2.2266 5.207-3.6016 7.6797-1.8867 3.293-3.3789 6.7969-4.4414 10.441-0.57031 2.3945-0.8125 4.8555-0.71875 7.3203-0.42969 4.8477-1.7734 9.5703-3.9609 13.918-2.0703 4.4414-3.6016 9.1133-4.5586 13.922-0.85938 4.7539-1.3438 9.5664-1.4414 14.398 0.33984 6.0156-0.26953 12.051-1.7969 17.879-0.71875 2.0391-1.8008 4.0781-2.7617 6.1211l-1.4414 3.1211c-2.2773 5.3594-4.2383 10.848-5.8789 16.438-1.4961 5.4102-3.3828 10.703-5.6406 15.84-3.8516 7.4648-8.4766 14.504-13.801 21l-33.477 44.402c-11.402 8.0352-25.059 12.234-39 12h-1.9219c-3.5039-0.46484-7.0547-0.46484-10.559 0-1.6055 0.375-3.1719 0.89453-4.6797 1.5586l-3 0.96094c-4.6055 0.73047-9.2656 1.0117-13.922 0.83984-9.9414 0.62891-19.488 4.1328-27.48 10.078-2.0156 0.42969-3.9336 1.2461-5.6406 2.4023-4.1133 3.2148-6.5742 8.1016-6.7188 13.32 0.13672 1.0742 0.13672 2.1641 0 3.2383-1.5586 5.5195-3.4805 10.801-5.3984 16.078v0.003906c-4.207 10.742-7.3438 21.879-9.3633 33.238-0.96094 5.6406-1.5586 11.398-2.1602 17.16-0.70703 13.547-3.5 26.902-8.2773 39.602l-0.71875 1.8008-0.003906-0.003906c-1.3828 2.7031-2.4297 5.5664-3.1172 8.5234-0.47266 3.5039-0.47266 7.0547 0 10.559 0.11719 2.0781 0.11719 4.1602 0 6.2383-1.2773 6.1641-3.9453 11.949-7.8008 16.922-1.8008 2.7617-3.6016 5.5195-5.1602 8.3984-8.1445 17.047-14.188 35.02-18 53.52-2.3984 9.4805-4.5586 18.359-7.1992 26.879-0.71875 2.3984-1.3203 4.9219-1.9219 7.5586v0.003907c-0.53906 4.168-1.7539 8.2227-3.5977 12-3.4414 4.1719-7.793 7.4961-12.723 9.7188-1.8008 1.0781-3.7188 2.1602-5.2812 3.2383l-36 22.922h0.003906c-28.277-115.73-20.734-237.32 21.633-348.66 42.363-111.34 117.55-207.2 215.61-274.86 98.055-67.66 214.35-103.94 333.48-104.04zm-363.36 1049.8 3.4805-2.2812c6.8398-3.8477 12.934-8.8867 18-14.879 5.7617-4.0781 25.441-18.84 26.398-32.281 0.23438-3.3125-2.2656-6.1875-5.5781-6.4219-3.3164-0.23047-6.1875 2.2695-6.4219 5.582 0 6.2383-13.441 17.879-21.961 24l-1.5586 1.4414c-4.2539 5.1875-9.4688 9.5039-15.359 12.719-2.2383 1.4414-4.5195 3-6.8398 4.6797-69.562-57.348-125.09-129.83-162.36-211.92 10.559-10.922 21-24 29.879-35.16 5.7617-7.1992 11.281-14.039 15.602-18.84 14.43 24.586 32.746 46.672 54.238 65.402l3.7188 2.7617v-0.003906c6.1836 4.0469 11.391 9.4141 15.242 15.723 0.58984 1.332 1.1133 2.6914 1.5586 4.0781 1.7266 5.0234 4.4609 9.6367 8.0391 13.562l1.1992 1.4414 0.003906-0.003906c1.7852 2.5977 2.5938 5.7422 2.2773 8.8789-0.070313 5.8984 1.5859 11.688 4.7617 16.652 3.1758 4.9688 7.7383 8.8984 13.117 11.309l32.281 17.762h1.8008c5.8789 1.0781 11.398 1.8008 16.801 2.5195l16.199 2.5195c4.0938 0.57812 8.1172 1.582 12 3 4.2969 2.0586 8.3281 4.6406 12 7.6797l4.8008 3.6016c6.9336 4.7344 14.332 8.7578 22.078 12 3.9609 1.6797 7.9219 3.4805 12 5.2812v-0.003906c26.652 6.7031 53.707 11.672 81 14.883 1.5586 27.359 3.7188 54 7.0781 78.48h0.003906c-0.070313 0.27344-0.070313 0.5625 0 0.83984v1.8008-0.003906c-2.9414 6.9688-6.9922 13.414-12 19.082-4.582 5.1445-8.6406 10.734-12.121 16.68l-17.52 34.922v-0.003907c-55.422-21.188-107.29-50.688-153.84-87.477zm165.12 91.801 17.039-33.84v-0.003906c2.8203-5.1328 6.1133-9.9961 9.8398-14.52 5.875-6.7266 10.582-14.395 13.918-22.68 1.3203-3.9609 2.5195-8.0391 3.6016-12 1.0781-3.9609 2.8789-10.199 4.6797-15.121 6.5156-15.582 14.938-30.293 25.082-43.797 5.6406-8.1602 11.16-16.559 16.199-25.199v-0.003906c1.207 2.668 2.1719 5.4414 2.8789 8.2812 2.3984 12 4.1992 24 5.5195 36-4.2266 6.4062-7.9219 13.148-11.039 20.16-3.6875 8.3477-8.0625 16.375-13.082 24-4.4414 5.6406-26.641 50.16-45.48 88.801-9.7188-3.4805-19.559-6.6016-29.156-10.082zm41.039 12.961c18.48-37.922 39.602-80.16 43.199-84.84v-0.003906c5.5039-8.125 10.281-16.719 14.281-25.68 0.83984-1.5586 1.5586-3 2.2812-4.5586 0.83984 12 1.3203 24.961 0.96094 37.32h-0.003907c-0.17578 3.1836 0.10547 6.375 0.83984 9.4766 0.93359 2.5625 2.1406 5.0195 3.6016 7.3203 1.1211 1.5078 1.9336 3.2227 2.3984 5.043 0.10547 1.0742 0.10547 2.1602 0 3.2383-0.13281 1.4766-0.13281 2.9648 0 4.4414-8.8789 12.961-16.199 25.32-23.16 37.32-3.6016 6.1211-7.1992 12-11.16 18.719-11.641-2.1602-22.438-4.8008-33.238-7.8008z"/>
  <path d="m1008.7 457.56c-2.3438-2.1914-5.25-3.6875-8.3984-4.3203-2.6406-0.26953-5.3047 0.058594-7.8008 0.96094-6.7266 2.0859-13.176 4.9883-19.199 8.6406-1.5 0.75391-2.6172 2.1016-3.082 3.7148-0.46094 1.6133-0.22266 3.3477 0.65234 4.7812 0.875 1.4297 2.3125 2.4297 3.9609 2.7539 1.6484 0.32422 3.3555-0.054688 4.707-1.0508 5.168-3.1211 10.688-5.6211 16.441-7.4375 0.79688-0.11328 1.6055-0.11328 2.3984 0 1.0078 0.45313 1.9375 1.0625 2.7617 1.7969l15.719 12c1.0625 0.83984 2.3711 1.3047 3.7227 1.3203 1.8281 0.011719 3.5586-0.83203 4.6797-2.2773 1.0117-1.2305 1.4805-2.8203 1.3008-4.4062-0.18359-1.582-0.99609-3.0234-2.2617-3.9961z"/>
  <path d="m942.12 405.96c3.1406 1.707 6.625 2.6914 10.199 2.8789h1.3203c10.105 1.8672 19.812 5.4805 28.68 10.68 0.84766 0.46484 1.793 0.71094 2.7578 0.71875 2.2969 0.007813 4.3906-1.2969 5.4023-3.3594 1.4141-2.9531 0.25-6.4961-2.6406-8.0391-10.129-5.8945-21.219-9.957-32.762-12h-1.5586c-1.8789 0.11719-3.7617-0.16797-5.5195-0.83984-2.8281-1.6953-6.4883-0.84375-8.2812 1.9219-1.5156 2.8867-0.44922 6.457 2.4023 8.0391z"/>
  <path d="m788.4 500.4c-1.5898 0.0625-3.0898 0.75781-4.1719 1.9258-1.082 1.1719-1.6523 2.7227-1.5859 4.3164v21.121c0.39062 2.9453 0.39062 5.9297 0 8.8789-1.4492 4.3945-3.7305 8.4688-6.7188 12l-3 4.1992c-10.086 14.695-14.363 32.613-12 50.281 0.46875 2.9531 3.0039 5.1367 6 5.1602h0.71875c1.5859-0.17969 3.0352-0.99609 4.0078-2.2617 0.97266-1.2695 1.3906-2.8789 1.1523-4.4609-1.9453-14.672 1.6016-29.543 9.9609-41.758 0.83984-1.3203 1.8008-2.5195 2.7617-3.8398h-0.003907c3.7148-4.75 6.4844-10.168 8.1602-15.961 0.97266-3.9219 1.3359-7.9688 1.082-12v-21.602c0-1.6523-0.67969-3.2383-1.8828-4.375-1.207-1.1367-2.8281-1.7227-4.4805-1.625z"/>
  <path d="m865.08 664.68c-1.9219-2.6406-3.8398-5.2812-5.5195-8.0391-6.6055-8.4961-8.9102-19.574-6.2383-30l1.0781-2.6406c0.89453-1.6406 1.6172-3.3711 2.1602-5.1602 1.1562-3.8867 1.5625-7.9609 1.2031-12v-30.121c0.10938-1.6445-0.50391-3.2539-1.6797-4.4062-1.1758-1.1562-2.8008-1.7383-4.4414-1.5938-1.5938 0.03125-3.1055 0.69531-4.207 1.8438-1.1055 1.1484-1.707 2.6875-1.6719 4.2773v30.238c0.43359 2.5039 0.43359 5.0625 0 7.5625-0.41016 1.1484-0.89062 2.2734-1.4414 3.3594-0.55078 0.96484-1.0352 1.9648-1.4414 3-4.375 14.039-1.6914 29.328 7.1992 41.039 1.8008 2.8789 3.7188 5.7617 5.6406 8.5195 5.2266 6.7578 9.2812 14.344 12 22.441 0.70312 2.6094 3.0625 4.4258 5.7617 4.4414h1.5586c1.5508-0.42188 2.8672-1.4453 3.6562-2.8438 0.78906-1.3984 0.98438-3.0547 0.54297-4.5977-3.2969-9.1602-8.082-17.715-14.16-25.32z"/>
  <path d="m957.12 627.84c-2.5312-1.9805-5.2188-3.7461-8.043-5.2812-2.207-1.2578-4.332-2.6602-6.3594-4.1992-3.1953-2.0352-5.2422-5.4609-5.5195-9.2383 0.33203-3.3164-2.0859-6.2695-5.3984-6.6016-3.3164-0.33203-6.2695 2.0859-6.6016 5.4023-0.29688 7.9297 3.5117 15.457 10.082 19.918 2.4688 1.7773 5.0312 3.4219 7.6797 4.9219 2.2812 1.4414 4.5586 2.7617 6.7188 4.4414v-0.003906c3.7188 3.2227 6.8828 7.0312 9.3594 11.281 1.0859 1.7344 2.9961 2.7773 5.0391 2.7578 1.1367 0.011719 2.2539-0.28125 3.2422-0.83984 2.7656-1.793 3.6133-5.4531 1.918-8.2773-3.1875-5.4219-7.2891-10.254-12.117-14.281z"/>
  <path d="m1039.1 561.96c-1.5781-0.03125-3.1055 0.57031-4.2344 1.6797-1.1289 1.1055-1.7656 2.6172-1.7656 4.1992 0 15.48 0 30.961 1.0781 46.32h0.003906c0.19141 3.1719 2.8203 5.6445 6 5.6406 1.5938-0.125 3.0703-0.875 4.1094-2.0938 1.0352-1.2148 1.543-2.793 1.4102-4.3867-1.0781-15-1.4414-30.121-1.0781-45.238v-0.003906c-0.039062-3.1367-2.4062-5.7578-5.5234-6.1172z"/>
  <path d="m1081 631.2c-3.1484 1.0312-4.9062 4.3828-3.9609 7.5625 3.4844 11.359 6.3672 22.895 8.6406 34.559 0.47266 2.8672 2.9727 4.957 5.8789 4.918h1.082c3.2383-0.60547 5.3828-3.7148 4.7969-6.957-2.293-12.156-5.2578-24.176-8.8789-36-0.98047-3.1992-4.3477-5.0156-7.5586-4.082z"/>
  <path d="m612 401.4-2.3984-3.7188c-1.625-2.7109-3.4688-5.2773-5.5234-7.6797-1.6016-1.7227-3.3242-3.3281-5.1562-4.8008-1.3281-1.0625-2.5703-2.2266-3.7227-3.4805-3.5078-3.7227-5.4023-8.6836-5.2773-13.797 0-3.3164-2.6875-6-6-6-3.3164 0-6 2.6836-6 6-0.21484 8.3047 2.8438 16.363 8.5195 22.438 1.4688 1.5352 3.0312 2.9766 4.6797 4.3203 1.4453 1.1445 2.8086 2.3867 4.0781 3.7188 1.5352 1.9023 2.9375 3.9062 4.1992 6 0.83984 1.4414 1.8008 2.8789 2.7617 4.1992v0.003906c6.6367 8.5156 14.77 15.754 24 21.359 0.97656 0.71094 2.1523 1.0859 3.3594 1.0781 2.6055-0.03125 4.8945-1.7422 5.6602-4.2344 0.76953-2.4922-0.16016-5.1914-2.3008-6.6836-7.9883-4.9883-15.055-11.32-20.879-18.723z"/>
  <path d="m824.88 299.28c-14.562-2.2617-29.32-3.0273-44.039-2.2812-3.3125 0.16406-5.8672 2.9844-5.6992 6.3008 0.16406 3.3125 2.9844 5.8633 6.3008 5.6992 13.875-0.72266 27.789 0.003906 41.52 2.1602h0.96094c3.3125 0.26562 6.2148-2.207 6.4766-5.5195 0.26562-3.3125-2.2031-6.2148-5.5195-6.4805z"/>
  <path d="m391.44 318.24c-1.5938 0.0625-3.0938 0.75781-4.1758 1.9258-1.0781 1.1719-1.6523 2.7227-1.5859 4.3164l2.1602 69c0.03125 1.5586 0.67969 3.043 1.8086 4.1211 1.125 1.082 2.6328 1.6719 4.1914 1.6367 3.2852-0.12891 5.8828-2.8281 5.8789-6.1172l-2.0391-69.121c0.007812-1.6133-0.66797-3.1562-1.8516-4.2539-1.1875-1.0938-2.7773-1.6406-4.3867-1.5078z"/>
  <path d="m987.6 874.56c-16.68-3-33.719-4.3203-50.16-5.6406l-193.44-14.879c-7.3477-0.019531-14.613-1.5312-21.359-4.4375-5.3242-3.1797-10.074-7.2383-14.039-12-2.0391-2.3984-4.1992-4.8008-6.3594-6.9609-20.52-20.281-50.398-26.762-74.398-32.039h-0.003906c-3.3125-0.69922-6.5625 1.4258-7.2617 4.7383-0.69531 3.3125 1.4297 6.5625 4.7422 7.2617 22.441 5.0391 50.398 11.16 68.398 28.922 2.0391 2.0391 3.9609 4.1992 5.8789 6.3594l0.003906-0.003906c4.8359 6.0859 10.73 11.246 17.398 15.242 8.1562 3.8086 17.039 5.8125 26.039 5.8789l192.96 13.922c16.441 0.96875 32.82 2.7695 49.078 5.3984 6.6016 1.1992 10.441 3 12 5.6406 0.92188 2.2383 3.1016 3.707 5.5234 3.7188 0.75 0.17187 1.5273 0.17187 2.2773 0 2.9258-1.3125 4.3008-4.6953 3.1211-7.6797-4.0273-7.6953-11.738-12.777-20.398-13.441z"/>
  <path d="m732 781.32c7.9219 3.7188 15.961 7.4414 24 12l1.3203 0.71875c3.8086 1.6953 7.4297 3.7852 10.801 6.2422 1.2109 0.89453 2.375 1.8555 3.4805 2.8789 2.0312 1.9219 4.2422 3.6523 6.5977 5.1602 7.0977 3.9844 15.031 6.2422 23.16 6.6016h3.4805c11.25 0.32812 22.312 2.9414 32.52 7.6797 2.3984 1.3203 4.8008 3 7.0781 4.5586 2.2812 1.5586 4.6797 3.2383 7.0781 4.6797h0.003906c12.898 6.8633 27.402 10.137 42 9.4805 6.8398 0 13.441 0 19.559-0.83984 3.3164-0.19922 5.8398-3.0469 5.6406-6.3594-0.19922-3.3164-3.0469-5.8398-6.3594-5.6406-17.16 1.0781-38.641 2.3984-54.719-7.0781l-5.6406-4.082c-2.6406-1.8008-5.2812-3.6016-8.1602-5.2812-11.625-5.4727-24.238-8.5352-37.078-9h-3.3633c-6.2812-0.23047-12.434-1.8711-18-4.8008-1.8203-1.2227-3.5469-2.5898-5.1602-4.0781l-4.1992-3.4805c-3.7578-2.8516-7.7734-5.3398-12-7.4414h-1.3203c-8.1602-4.1992-16.32-8.0391-24-12-27.336-10.605-52.238-26.652-73.199-47.16-2.2656-2.2227-5.875-2.293-8.2266-0.16406-2.3555 2.1328-2.6406 5.7305-0.65234 8.207 21.586 21.262 47.207 37.992 75.359 49.199z"/>
 </g>
</svg>
